<mxfile host="Electron" modified="2023-05-23T17:48:38.042Z" agent="Mozilla/5.0 (Windows NT 10.0; Win64; x64) AppleWebKit/537.36 (KHTML, like Gecko) draw.io/21.2.8 Chrome/112.0.5615.165 Electron/24.2.0 Safari/537.36" etag="En4vxAXiE7UwDhujvkSC" version="21.2.8" type="device">
  <diagram name="1 oldal" id="uItbc0fptJHmJ95japzl">
    <mxGraphModel dx="1036" dy="606" grid="1" gridSize="10" guides="1" tooltips="1" connect="1" arrows="1" fold="1" page="1" pageScale="1" pageWidth="827" pageHeight="1169" math="0" shadow="0">
      <root>
        <mxCell id="0" />
        <mxCell id="1" parent="0" />
        <mxCell id="dG-mSqy-d_Neif0TNv38-1" value="S" style="ellipse;whiteSpace=wrap;html=1;aspect=fixed;" parent="1" vertex="1">
          <mxGeometry x="240" y="170" width="80" height="80" as="geometry" />
        </mxCell>
        <mxCell id="dG-mSqy-d_Neif0TNv38-2" value="" style="endArrow=classic;html=1;rounded=0;entryX=0;entryY=0;entryDx=0;entryDy=0;exitX=1;exitY=1;exitDx=0;exitDy=0;" parent="1" source="dG-mSqy-d_Neif0TNv38-26" target="dG-mSqy-d_Neif0TNv38-1" edge="1">
          <mxGeometry width="50" height="50" relative="1" as="geometry">
            <mxPoint x="210" y="140" as="sourcePoint" />
            <mxPoint x="220" y="130" as="targetPoint" />
          </mxGeometry>
        </mxCell>
        <mxCell id="dG-mSqy-d_Neif0TNv38-3" value="W" style="ellipse;whiteSpace=wrap;html=1;aspect=fixed;" parent="1" vertex="1">
          <mxGeometry x="320" y="290" width="80" height="80" as="geometry" />
        </mxCell>
        <mxCell id="dG-mSqy-d_Neif0TNv38-4" value="R" style="ellipse;whiteSpace=wrap;html=1;aspect=fixed;" parent="1" vertex="1">
          <mxGeometry x="440" y="170" width="80" height="80" as="geometry" />
        </mxCell>
        <mxCell id="dG-mSqy-d_Neif0TNv38-7" value="" style="curved=1;endArrow=classic;html=1;rounded=0;entryX=0;entryY=0;entryDx=0;entryDy=0;exitX=0.5;exitY=1;exitDx=0;exitDy=0;" parent="1" source="dG-mSqy-d_Neif0TNv38-1" target="dG-mSqy-d_Neif0TNv38-3" edge="1">
          <mxGeometry width="50" height="50" relative="1" as="geometry">
            <mxPoint x="290" y="300" as="sourcePoint" />
            <mxPoint x="340" y="250" as="targetPoint" />
            <Array as="points">
              <mxPoint x="280" y="270" />
              <mxPoint x="300" y="290" />
              <mxPoint x="290" y="250" />
              <mxPoint x="310" y="280" />
            </Array>
          </mxGeometry>
        </mxCell>
        <mxCell id="dG-mSqy-d_Neif0TNv38-8" value="success" style="text;html=1;strokeColor=none;fillColor=none;align=center;verticalAlign=middle;whiteSpace=wrap;rounded=0;" parent="1" vertex="1">
          <mxGeometry x="240" y="270" width="60" height="30" as="geometry" />
        </mxCell>
        <mxCell id="dG-mSqy-d_Neif0TNv38-9" value="" style="curved=1;endArrow=classic;html=1;rounded=0;entryX=0.065;entryY=0.73;entryDx=0;entryDy=0;entryPerimeter=0;exitX=1;exitY=0;exitDx=0;exitDy=0;" parent="1" source="dG-mSqy-d_Neif0TNv38-3" target="dG-mSqy-d_Neif0TNv38-4" edge="1">
          <mxGeometry width="50" height="50" relative="1" as="geometry">
            <mxPoint x="390" y="310" as="sourcePoint" />
            <mxPoint x="440" y="260" as="targetPoint" />
            <Array as="points">
              <mxPoint x="430" y="290" />
              <mxPoint x="390" y="260" />
            </Array>
          </mxGeometry>
        </mxCell>
        <mxCell id="dG-mSqy-d_Neif0TNv38-10" value="btn_press" style="text;html=1;strokeColor=none;fillColor=none;align=center;verticalAlign=middle;whiteSpace=wrap;rounded=0;" parent="1" vertex="1">
          <mxGeometry x="420" y="260" width="60" height="30" as="geometry" />
        </mxCell>
        <mxCell id="dG-mSqy-d_Neif0TNv38-11" value="D" style="ellipse;whiteSpace=wrap;html=1;aspect=fixed;" parent="1" vertex="1">
          <mxGeometry x="560" y="50" width="70" height="70" as="geometry" />
        </mxCell>
        <mxCell id="dG-mSqy-d_Neif0TNv38-12" value="" style="curved=1;endArrow=classic;html=1;rounded=0;entryX=0;entryY=1;entryDx=0;entryDy=0;exitX=1;exitY=0;exitDx=0;exitDy=0;" parent="1" source="dG-mSqy-d_Neif0TNv38-4" target="dG-mSqy-d_Neif0TNv38-11" edge="1">
          <mxGeometry width="50" height="50" relative="1" as="geometry">
            <mxPoint x="510" y="170" as="sourcePoint" />
            <mxPoint x="560" y="120" as="targetPoint" />
            <Array as="points">
              <mxPoint x="560" y="170" />
              <mxPoint x="510" y="120" />
            </Array>
          </mxGeometry>
        </mxCell>
        <mxCell id="dG-mSqy-d_Neif0TNv38-13" value="sensor_detect" style="text;html=1;strokeColor=none;fillColor=none;align=center;verticalAlign=middle;whiteSpace=wrap;rounded=0;" parent="1" vertex="1">
          <mxGeometry x="550" y="140" width="90" height="30" as="geometry" />
        </mxCell>
        <mxCell id="dG-mSqy-d_Neif0TNv38-14" value="" style="curved=1;endArrow=classic;html=1;rounded=0;entryX=1;entryY=0.5;entryDx=0;entryDy=0;exitX=1;exitY=1;exitDx=0;exitDy=0;" parent="1" source="dG-mSqy-d_Neif0TNv38-4" target="dG-mSqy-d_Neif0TNv38-3" edge="1">
          <mxGeometry width="50" height="50" relative="1" as="geometry">
            <mxPoint x="570" y="250" as="sourcePoint" />
            <mxPoint x="440" y="330" as="targetPoint" />
            <Array as="points">
              <mxPoint x="530" y="340" />
              <mxPoint x="470" y="300" />
            </Array>
          </mxGeometry>
        </mxCell>
        <mxCell id="dG-mSqy-d_Neif0TNv38-15" value="btn_press" style="text;html=1;strokeColor=none;fillColor=none;align=center;verticalAlign=middle;whiteSpace=wrap;rounded=0;" parent="1" vertex="1">
          <mxGeometry x="520" y="280" width="60" height="30" as="geometry" />
        </mxCell>
        <mxCell id="dG-mSqy-d_Neif0TNv38-16" value="" style="curved=1;endArrow=classic;html=1;rounded=0;exitX=0.017;exitY=0.383;exitDx=0;exitDy=0;exitPerimeter=0;entryX=0;entryY=0;entryDx=0;entryDy=0;" parent="1" source="dG-mSqy-d_Neif0TNv38-11" target="dG-mSqy-d_Neif0TNv38-4" edge="1">
          <mxGeometry width="50" height="50" relative="1" as="geometry">
            <mxPoint x="360" y="20" as="sourcePoint" />
            <mxPoint x="460" y="160" as="targetPoint" />
            <Array as="points">
              <mxPoint x="400" y="50" />
            </Array>
          </mxGeometry>
        </mxCell>
        <mxCell id="dG-mSqy-d_Neif0TNv38-17" value="no_sensor_detect" style="text;html=1;strokeColor=none;fillColor=none;align=center;verticalAlign=middle;whiteSpace=wrap;rounded=0;" parent="1" vertex="1">
          <mxGeometry x="380" y="49" width="120" height="30" as="geometry" />
        </mxCell>
        <mxCell id="dG-mSqy-d_Neif0TNv38-21" value="F" style="ellipse;whiteSpace=wrap;html=1;aspect=fixed;" parent="1" vertex="1">
          <mxGeometry x="70" y="270" width="80" height="80" as="geometry" />
        </mxCell>
        <mxCell id="dG-mSqy-d_Neif0TNv38-22" value="" style="curved=1;endArrow=classic;html=1;rounded=0;" parent="1" source="dG-mSqy-d_Neif0TNv38-1" target="dG-mSqy-d_Neif0TNv38-21" edge="1">
          <mxGeometry width="50" height="50" relative="1" as="geometry">
            <mxPoint x="170" y="260" as="sourcePoint" />
            <mxPoint x="120" y="220" as="targetPoint" />
            <Array as="points">
              <mxPoint x="220" y="260" />
              <mxPoint x="170" y="210" />
            </Array>
          </mxGeometry>
        </mxCell>
        <mxCell id="dG-mSqy-d_Neif0TNv38-23" value="failure" style="text;html=1;strokeColor=none;fillColor=none;align=center;verticalAlign=middle;whiteSpace=wrap;rounded=0;" parent="1" vertex="1">
          <mxGeometry x="130" y="195" width="60" height="30" as="geometry" />
        </mxCell>
        <mxCell id="dG-mSqy-d_Neif0TNv38-25" value="&lt;h1&gt;&lt;span style=&quot;background-color: initial;&quot;&gt;Jelentések&lt;/span&gt;&lt;/h1&gt;&lt;div&gt;S: kezdőállapot, szenzorok tesztelése&lt;/div&gt;&lt;div&gt;W: várakozás kezdésre&lt;/div&gt;&lt;div&gt;R: a radar forog, az ultrahangos szenzor érzékel&lt;/div&gt;&lt;div&gt;D: az ultrahangos szenzor érzékelt valamit, a led mátrix mutatja&amp;nbsp; &amp;nbsp; &amp;nbsp; &amp;nbsp; az irányát&lt;/div&gt;&lt;div&gt;F: a tesztelés sikertelen volt&lt;/div&gt;&lt;div&gt;&lt;br&gt;&lt;/div&gt;&lt;div style=&quot;&quot;&gt;&lt;font style=&quot;font-size: 24px;&quot;&gt;&lt;b&gt;Átmenetek&lt;/b&gt;&lt;/font&gt;&lt;/div&gt;&lt;div style=&quot;&quot;&gt;&lt;font style=&quot;font-size: 24px;&quot;&gt;&lt;b&gt;&lt;br&gt;&lt;/b&gt;&lt;/font&gt;&lt;/div&gt;&lt;div style=&quot;&quot;&gt;&lt;span style=&quot;background-color: initial;&quot;&gt;success:&amp;nbsp; &amp;nbsp; &amp;nbsp; &amp;nbsp; &amp;nbsp; &amp;nbsp; &amp;nbsp; &amp;nbsp; &amp;nbsp;a teszt sikeres volt&lt;/span&gt;&lt;/div&gt;&lt;div style=&quot;&quot;&gt;&lt;span style=&quot;background-color: initial;&quot;&gt;btn_press:&amp;nbsp; &amp;nbsp; &amp;nbsp; &amp;nbsp; &amp;nbsp; &amp;nbsp; &amp;nbsp; az indító/leállító gombot megnyomják&lt;/span&gt;&lt;/div&gt;&lt;div style=&quot;&quot;&gt;&lt;span style=&quot;background-color: initial;&quot;&gt;sensor_detect:&amp;nbsp; &amp;nbsp; &amp;nbsp; &amp;nbsp;az ultrahangos szenzor érzékelt valamit&lt;/span&gt;&lt;/div&gt;&lt;div style=&quot;&quot;&gt;no_sensor_detect: nem érzékel a szenzor&lt;/div&gt;&lt;div style=&quot;&quot;&gt;failure:&amp;nbsp; &amp;nbsp; &amp;nbsp; &amp;nbsp; &amp;nbsp; &amp;nbsp; &amp;nbsp; &amp;nbsp; &amp;nbsp; &amp;nbsp; a teszt sikertelen volt&lt;/div&gt;&lt;div&gt;&lt;br&gt;&lt;/div&gt;" style="text;html=1;spacing=5;spacingTop=-20;whiteSpace=wrap;overflow=hidden;rounded=0;fillColor=#f5f5f5;fontColor=#333333;strokeColor=#666666;" parent="1" vertex="1">
          <mxGeometry x="440" y="110" width="360" height="330" as="geometry" />
        </mxCell>
        <mxCell id="dG-mSqy-d_Neif0TNv38-26" value="" style="ellipse;whiteSpace=wrap;html=1;aspect=fixed;fontSize=24;" parent="1" vertex="1">
          <mxGeometry x="190" y="120" width="20" height="20" as="geometry" />
        </mxCell>
        <mxCell id="dG-mSqy-d_Neif0TNv38-27" value="" style="curved=1;endArrow=classic;html=1;rounded=0;fontSize=24;entryX=0.5;entryY=0;entryDx=0;entryDy=0;exitX=0.5;exitY=0;exitDx=0;exitDy=0;" parent="1" source="dG-mSqy-d_Neif0TNv38-11" target="dG-mSqy-d_Neif0TNv38-3" edge="1">
          <mxGeometry width="50" height="50" relative="1" as="geometry">
            <mxPoint x="510" y="-10" as="sourcePoint" />
            <mxPoint x="310" y="70" as="targetPoint" />
            <Array as="points">
              <mxPoint x="290" y="-30" />
              <mxPoint x="370" y="170" />
            </Array>
          </mxGeometry>
        </mxCell>
        <mxCell id="dG-mSqy-d_Neif0TNv38-28" value="&lt;font style=&quot;font-size: 14px;&quot;&gt;btn_press&lt;/font&gt;" style="text;html=1;strokeColor=none;fillColor=none;align=center;verticalAlign=middle;whiteSpace=wrap;rounded=0;fontSize=24;" parent="1" vertex="1">
          <mxGeometry x="260" y="8" width="70" height="30" as="geometry" />
        </mxCell>
        <mxCell id="dG-mSqy-d_Neif0TNv38-29" style="edgeStyle=orthogonalEdgeStyle;rounded=0;orthogonalLoop=1;jettySize=auto;html=1;exitX=0.5;exitY=1;exitDx=0;exitDy=0;fontSize=14;" parent="1" source="dG-mSqy-d_Neif0TNv38-28" target="dG-mSqy-d_Neif0TNv38-28" edge="1">
          <mxGeometry relative="1" as="geometry" />
        </mxCell>
        <mxCell id="eBgJc8pwtr7jQaxUQbmT-6" style="edgeStyle=orthogonalEdgeStyle;rounded=0;orthogonalLoop=1;jettySize=auto;html=1;exitX=1;exitY=0;exitDx=0;exitDy=0;entryX=0;entryY=0.5;entryDx=0;entryDy=0;" parent="1" source="eBgJc8pwtr7jQaxUQbmT-2" target="eBgJc8pwtr7jQaxUQbmT-3" edge="1">
          <mxGeometry relative="1" as="geometry" />
        </mxCell>
        <mxCell id="eBgJc8pwtr7jQaxUQbmT-2" value="S" style="ellipse;whiteSpace=wrap;html=1;aspect=fixed;" parent="1" vertex="1">
          <mxGeometry x="225" y="580" width="80" height="80" as="geometry" />
        </mxCell>
        <mxCell id="eBgJc8pwtr7jQaxUQbmT-7" style="edgeStyle=orthogonalEdgeStyle;rounded=0;orthogonalLoop=1;jettySize=auto;html=1;exitX=0;exitY=1;exitDx=0;exitDy=0;entryX=0;entryY=0;entryDx=0;entryDy=0;" parent="1" source="eBgJc8pwtr7jQaxUQbmT-3" target="eBgJc8pwtr7jQaxUQbmT-4" edge="1">
          <mxGeometry relative="1" as="geometry" />
        </mxCell>
        <mxCell id="eBgJc8pwtr7jQaxUQbmT-3" value="F" style="ellipse;whiteSpace=wrap;html=1;aspect=fixed;" parent="1" vertex="1">
          <mxGeometry x="395" y="510" width="80" height="80" as="geometry" />
        </mxCell>
        <mxCell id="eBgJc8pwtr7jQaxUQbmT-12" style="edgeStyle=orthogonalEdgeStyle;rounded=0;orthogonalLoop=1;jettySize=auto;html=1;exitX=0.5;exitY=0;exitDx=0;exitDy=0;entryX=0.5;entryY=1;entryDx=0;entryDy=0;" parent="1" source="eBgJc8pwtr7jQaxUQbmT-4" target="eBgJc8pwtr7jQaxUQbmT-3" edge="1">
          <mxGeometry relative="1" as="geometry" />
        </mxCell>
        <mxCell id="eBgJc8pwtr7jQaxUQbmT-4" value="B" style="ellipse;whiteSpace=wrap;html=1;aspect=fixed;" parent="1" vertex="1">
          <mxGeometry x="395" y="670" width="80" height="80" as="geometry" />
        </mxCell>
        <mxCell id="eBgJc8pwtr7jQaxUQbmT-5" value="A" style="ellipse;whiteSpace=wrap;html=1;aspect=fixed;" parent="1" vertex="1">
          <mxGeometry x="595" y="590" width="80" height="80" as="geometry" />
        </mxCell>
        <mxCell id="eBgJc8pwtr7jQaxUQbmT-8" value="" style="curved=1;endArrow=classic;html=1;rounded=0;exitX=1;exitY=1;exitDx=0;exitDy=0;entryX=0;entryY=1;entryDx=0;entryDy=0;" parent="1" source="eBgJc8pwtr7jQaxUQbmT-4" target="eBgJc8pwtr7jQaxUQbmT-5" edge="1">
          <mxGeometry width="50" height="50" relative="1" as="geometry">
            <mxPoint x="495" y="735" as="sourcePoint" />
            <mxPoint x="545" y="685" as="targetPoint" />
            <Array as="points">
              <mxPoint x="545" y="735" />
              <mxPoint x="565" y="720" />
              <mxPoint x="525" y="685" />
            </Array>
          </mxGeometry>
        </mxCell>
        <mxCell id="eBgJc8pwtr7jQaxUQbmT-9" value="" style="curved=1;endArrow=classic;html=1;rounded=0;entryX=0.38;entryY=-0.012;entryDx=0;entryDy=0;entryPerimeter=0;" parent="1" source="eBgJc8pwtr7jQaxUQbmT-3" target="eBgJc8pwtr7jQaxUQbmT-5" edge="1">
          <mxGeometry width="50" height="50" relative="1" as="geometry">
            <mxPoint x="535" y="560" as="sourcePoint" />
            <mxPoint x="585" y="510" as="targetPoint" />
            <Array as="points">
              <mxPoint x="505" y="500" />
              <mxPoint x="535" y="510" />
            </Array>
          </mxGeometry>
        </mxCell>
        <mxCell id="eBgJc8pwtr7jQaxUQbmT-10" value="" style="curved=1;endArrow=classic;html=1;rounded=0;entryX=1;entryY=1;entryDx=0;entryDy=0;exitX=0;exitY=0;exitDx=0;exitDy=0;" parent="1" source="eBgJc8pwtr7jQaxUQbmT-5" target="eBgJc8pwtr7jQaxUQbmT-3" edge="1">
          <mxGeometry width="50" height="50" relative="1" as="geometry">
            <mxPoint x="505" y="670" as="sourcePoint" />
            <mxPoint x="555" y="620" as="targetPoint" />
            <Array as="points">
              <mxPoint x="525" y="600" />
              <mxPoint x="525" y="610" />
              <mxPoint x="515" y="590" />
              <mxPoint x="515" y="610" />
              <mxPoint x="505" y="610" />
              <mxPoint x="505" y="620" />
            </Array>
          </mxGeometry>
        </mxCell>
        <mxCell id="eBgJc8pwtr7jQaxUQbmT-11" value="" style="curved=1;endArrow=classic;html=1;rounded=0;exitX=0;exitY=0.5;exitDx=0;exitDy=0;entryX=1;entryY=0;entryDx=0;entryDy=0;" parent="1" source="eBgJc8pwtr7jQaxUQbmT-5" target="eBgJc8pwtr7jQaxUQbmT-4" edge="1">
          <mxGeometry width="50" height="50" relative="1" as="geometry">
            <mxPoint x="515" y="690" as="sourcePoint" />
            <mxPoint x="455" y="620" as="targetPoint" />
            <Array as="points">
              <mxPoint x="555" y="630" />
            </Array>
          </mxGeometry>
        </mxCell>
        <mxCell id="eBgJc8pwtr7jQaxUQbmT-13" value="" style="endArrow=classic;html=1;rounded=0;entryX=0;entryY=0;entryDx=0;entryDy=0;" parent="1" target="eBgJc8pwtr7jQaxUQbmT-2" edge="1">
          <mxGeometry width="50" height="50" relative="1" as="geometry">
            <mxPoint x="180" y="540" as="sourcePoint" />
            <mxPoint x="150" y="510" as="targetPoint" />
          </mxGeometry>
        </mxCell>
        <mxCell id="eBgJc8pwtr7jQaxUQbmT-18" style="edgeStyle=orthogonalEdgeStyle;rounded=0;orthogonalLoop=1;jettySize=auto;html=1;exitX=1;exitY=0.5;exitDx=0;exitDy=0;entryX=0;entryY=0.5;entryDx=0;entryDy=0;" parent="1" source="eBgJc8pwtr7jQaxUQbmT-14" target="eBgJc8pwtr7jQaxUQbmT-15" edge="1">
          <mxGeometry relative="1" as="geometry" />
        </mxCell>
        <mxCell id="eBgJc8pwtr7jQaxUQbmT-14" value="S" style="ellipse;whiteSpace=wrap;html=1;aspect=fixed;" parent="1" vertex="1">
          <mxGeometry x="25" y="810" width="70" height="70" as="geometry" />
        </mxCell>
        <mxCell id="eBgJc8pwtr7jQaxUQbmT-19" style="edgeStyle=orthogonalEdgeStyle;rounded=0;orthogonalLoop=1;jettySize=auto;html=1;exitX=0;exitY=1;exitDx=0;exitDy=0;entryX=0;entryY=0;entryDx=0;entryDy=0;" parent="1" source="eBgJc8pwtr7jQaxUQbmT-15" target="eBgJc8pwtr7jQaxUQbmT-17" edge="1">
          <mxGeometry relative="1" as="geometry" />
        </mxCell>
        <mxCell id="eBgJc8pwtr7jQaxUQbmT-20" style="edgeStyle=orthogonalEdgeStyle;rounded=0;orthogonalLoop=1;jettySize=auto;html=1;exitX=1;exitY=0;exitDx=0;exitDy=0;entryX=1;entryY=1;entryDx=0;entryDy=0;" parent="1" source="eBgJc8pwtr7jQaxUQbmT-17" target="eBgJc8pwtr7jQaxUQbmT-15" edge="1">
          <mxGeometry relative="1" as="geometry" />
        </mxCell>
        <mxCell id="eBgJc8pwtr7jQaxUQbmT-22" style="edgeStyle=orthogonalEdgeStyle;rounded=0;orthogonalLoop=1;jettySize=auto;html=1;exitX=1;exitY=0.5;exitDx=0;exitDy=0;entryX=0;entryY=0;entryDx=0;entryDy=0;" parent="1" source="eBgJc8pwtr7jQaxUQbmT-15" target="eBgJc8pwtr7jQaxUQbmT-16" edge="1">
          <mxGeometry relative="1" as="geometry">
            <Array as="points">
              <mxPoint x="305" y="845" />
              <mxPoint x="305" y="790" />
            </Array>
          </mxGeometry>
        </mxCell>
        <mxCell id="eBgJc8pwtr7jQaxUQbmT-15" value="F" style="ellipse;whiteSpace=wrap;html=1;aspect=fixed;" parent="1" vertex="1">
          <mxGeometry x="185" y="810" width="70" height="70" as="geometry" />
        </mxCell>
        <mxCell id="eBgJc8pwtr7jQaxUQbmT-23" style="edgeStyle=orthogonalEdgeStyle;rounded=0;orthogonalLoop=1;jettySize=auto;html=1;exitX=0;exitY=0.5;exitDx=0;exitDy=0;entryX=1;entryY=1;entryDx=0;entryDy=0;" parent="1" source="eBgJc8pwtr7jQaxUQbmT-16" target="eBgJc8pwtr7jQaxUQbmT-15" edge="1">
          <mxGeometry relative="1" as="geometry">
            <Array as="points">
              <mxPoint x="335" y="870" />
            </Array>
          </mxGeometry>
        </mxCell>
        <mxCell id="eBgJc8pwtr7jQaxUQbmT-24" style="edgeStyle=orthogonalEdgeStyle;rounded=0;orthogonalLoop=1;jettySize=auto;html=1;exitX=0;exitY=1;exitDx=0;exitDy=0;entryX=0.98;entryY=0.283;entryDx=0;entryDy=0;entryPerimeter=0;" parent="1" source="eBgJc8pwtr7jQaxUQbmT-16" target="eBgJc8pwtr7jQaxUQbmT-17" edge="1">
          <mxGeometry relative="1" as="geometry">
            <mxPoint x="245" y="948" as="targetPoint" />
            <Array as="points">
              <mxPoint x="375" y="840" />
              <mxPoint x="375" y="910" />
              <mxPoint x="293" y="910" />
              <mxPoint x="293" y="960" />
              <mxPoint x="249" y="960" />
            </Array>
          </mxGeometry>
        </mxCell>
        <mxCell id="eBgJc8pwtr7jQaxUQbmT-16" value="D" style="ellipse;whiteSpace=wrap;html=1;aspect=fixed;" parent="1" vertex="1">
          <mxGeometry x="405" y="780" width="70" height="70" as="geometry" />
        </mxCell>
        <mxCell id="eBgJc8pwtr7jQaxUQbmT-21" style="edgeStyle=orthogonalEdgeStyle;rounded=0;orthogonalLoop=1;jettySize=auto;html=1;exitX=1;exitY=0.5;exitDx=0;exitDy=0;entryX=0.5;entryY=1;entryDx=0;entryDy=0;" parent="1" source="eBgJc8pwtr7jQaxUQbmT-17" target="eBgJc8pwtr7jQaxUQbmT-16" edge="1">
          <mxGeometry relative="1" as="geometry" />
        </mxCell>
        <mxCell id="eBgJc8pwtr7jQaxUQbmT-17" value="B" style="ellipse;whiteSpace=wrap;html=1;aspect=fixed;" parent="1" vertex="1">
          <mxGeometry x="180" y="960" width="70" height="70" as="geometry" />
        </mxCell>
        <mxCell id="eBgJc8pwtr7jQaxUQbmT-26" value="LED mátrixot irányító Arduino nano:" style="text;html=1;strokeColor=none;fillColor=none;align=center;verticalAlign=middle;whiteSpace=wrap;rounded=0;" parent="1" vertex="1">
          <mxGeometry x="10" y="740" width="140" height="50" as="geometry" />
        </mxCell>
        <mxCell id="eBgJc8pwtr7jQaxUQbmT-27" value="Motort irányító Arduino:" style="text;html=1;strokeColor=none;fillColor=none;align=center;verticalAlign=middle;whiteSpace=wrap;rounded=0;" parent="1" vertex="1">
          <mxGeometry y="540" width="140" height="50" as="geometry" />
        </mxCell>
        <mxCell id="eBgJc8pwtr7jQaxUQbmT-28" value="s" style="text;html=1;strokeColor=none;fillColor=none;align=center;verticalAlign=middle;whiteSpace=wrap;rounded=0;" parent="1" vertex="1">
          <mxGeometry x="305" y="530" width="60" height="30" as="geometry" />
        </mxCell>
        <mxCell id="eBgJc8pwtr7jQaxUQbmT-29" value="d" style="text;html=1;strokeColor=none;fillColor=none;align=center;verticalAlign=middle;whiteSpace=wrap;rounded=0;" parent="1" vertex="1">
          <mxGeometry x="360" y="600" width="60" height="30" as="geometry" />
        </mxCell>
        <mxCell id="eBgJc8pwtr7jQaxUQbmT-30" value="d" style="text;html=1;strokeColor=none;fillColor=none;align=center;verticalAlign=middle;whiteSpace=wrap;rounded=0;" parent="1" vertex="1">
          <mxGeometry x="395" y="615" width="60" height="30" as="geometry" />
        </mxCell>
        <mxCell id="eBgJc8pwtr7jQaxUQbmT-31" value="a" style="text;html=1;strokeColor=none;fillColor=none;align=center;verticalAlign=middle;whiteSpace=wrap;rounded=0;" parent="1" vertex="1">
          <mxGeometry x="535" y="680" width="60" height="30" as="geometry" />
        </mxCell>
        <mxCell id="eBgJc8pwtr7jQaxUQbmT-32" value="a" style="text;html=1;strokeColor=none;fillColor=none;align=center;verticalAlign=middle;whiteSpace=wrap;rounded=0;" parent="1" vertex="1">
          <mxGeometry x="535" y="500" width="60" height="30" as="geometry" />
        </mxCell>
        <mxCell id="eBgJc8pwtr7jQaxUQbmT-33" value="o" style="text;html=1;strokeColor=none;fillColor=none;align=center;verticalAlign=middle;whiteSpace=wrap;rounded=0;" parent="1" vertex="1">
          <mxGeometry x="510" y="570" width="60" height="30" as="geometry" />
        </mxCell>
        <mxCell id="eBgJc8pwtr7jQaxUQbmT-34" value="o" style="text;html=1;strokeColor=none;fillColor=none;align=center;verticalAlign=middle;whiteSpace=wrap;rounded=0;" parent="1" vertex="1">
          <mxGeometry x="480" y="630" width="60" height="30" as="geometry" />
        </mxCell>
        <mxCell id="eBgJc8pwtr7jQaxUQbmT-35" value="s" style="text;html=1;strokeColor=none;fillColor=none;align=center;verticalAlign=middle;whiteSpace=wrap;rounded=0;" parent="1" vertex="1">
          <mxGeometry x="100" y="810" width="60" height="30" as="geometry" />
        </mxCell>
        <mxCell id="eBgJc8pwtr7jQaxUQbmT-36" value="d" style="text;html=1;strokeColor=none;fillColor=none;align=center;verticalAlign=middle;whiteSpace=wrap;rounded=0;" parent="1" vertex="1">
          <mxGeometry x="150" y="890" width="60" height="30" as="geometry" />
        </mxCell>
        <mxCell id="eBgJc8pwtr7jQaxUQbmT-37" value="d" style="text;html=1;strokeColor=none;fillColor=none;align=center;verticalAlign=middle;whiteSpace=wrap;rounded=0;" parent="1" vertex="1">
          <mxGeometry x="200" y="890" width="60" height="30" as="geometry" />
        </mxCell>
        <mxCell id="eBgJc8pwtr7jQaxUQbmT-38" value="r" style="text;html=1;strokeColor=none;fillColor=none;align=center;verticalAlign=middle;whiteSpace=wrap;rounded=0;" parent="1" vertex="1">
          <mxGeometry x="300" y="990" width="60" height="30" as="geometry" />
        </mxCell>
        <mxCell id="eBgJc8pwtr7jQaxUQbmT-39" value="r" style="text;html=1;strokeColor=none;fillColor=none;align=center;verticalAlign=middle;whiteSpace=wrap;rounded=0;" parent="1" vertex="1">
          <mxGeometry x="310" y="760" width="60" height="30" as="geometry" />
        </mxCell>
        <mxCell id="eBgJc8pwtr7jQaxUQbmT-41" value="p" style="text;html=1;strokeColor=none;fillColor=none;align=center;verticalAlign=middle;whiteSpace=wrap;rounded=0;" parent="1" vertex="1">
          <mxGeometry x="270" y="860" width="60" height="30" as="geometry" />
        </mxCell>
        <mxCell id="eBgJc8pwtr7jQaxUQbmT-42" value="p" style="text;html=1;strokeColor=none;fillColor=none;align=center;verticalAlign=middle;whiteSpace=wrap;rounded=0;" parent="1" vertex="1">
          <mxGeometry x="335" y="870" width="60" height="30" as="geometry" />
        </mxCell>
        <mxCell id="eBgJc8pwtr7jQaxUQbmT-43" value="&lt;h1&gt;&lt;span style=&quot;background-color: initial;&quot;&gt;Jelentések&lt;/span&gt;&lt;/h1&gt;&lt;div&gt;S: keződállapot&lt;/div&gt;&lt;div&gt;F: a motor/LED mátrix animáció óramutató járásával megegyezően mozog&lt;/div&gt;&lt;div&gt;B: a motor/LED mátrix animáció óramutató járásával ellentétesen mozog&lt;/div&gt;&lt;div&gt;A: a távolságérzékelő szenzor észlelt, a buzzer csipog, az erről szóló adatot küldi a másik arduinónak&lt;/div&gt;&lt;div&gt;&lt;span style=&quot;background-color: initial;&quot;&gt;D: a LED-et irányító arduinó megkapja a serial-on küldött adatot és feldolgozza.&lt;/span&gt;&lt;br&gt;&lt;/div&gt;&lt;div&gt;&lt;br&gt;&lt;/div&gt;&lt;div style=&quot;&quot;&gt;&lt;font style=&quot;font-size: 24px;&quot;&gt;&lt;b&gt;Átmenetek&lt;/b&gt;&lt;/font&gt;&lt;/div&gt;&lt;div style=&quot;&quot;&gt;&lt;br&gt;&lt;/div&gt;&lt;div style=&quot;&quot;&gt;s: portok beállítása megtörténik&lt;/div&gt;&lt;div style=&quot;&quot;&gt;d: a motor/LED mátrix megtesz 360 foknyi fordulatot, ezért irányt vált&lt;/div&gt;&lt;div style=&quot;&quot;&gt;a: a szenzor érzékelt valamit&lt;/div&gt;&lt;div style=&quot;&quot;&gt;o: a szenzor már nem érzékel semmit&lt;/div&gt;&lt;div style=&quot;&quot;&gt;r: adat érkezik az arduinonak serial kapcsolaton&lt;/div&gt;&lt;div style=&quot;&quot;&gt;p: az adat feldolgozásra került&lt;/div&gt;&lt;div&gt;&lt;br&gt;&lt;/div&gt;" style="text;html=1;spacing=5;spacingTop=-20;whiteSpace=wrap;overflow=hidden;rounded=0;fillColor=#f5f5f5;fontColor=#333333;strokeColor=#666666;" parent="1" vertex="1">
          <mxGeometry x="490" y="750" width="430" height="350" as="geometry" />
        </mxCell>
      </root>
    </mxGraphModel>
  </diagram>
</mxfile>
